HIERARCHY
ROOT SpineBase
{
  OFFSET 0.000000 0.000000 0.000000
  CHANNELS 6 Xposition Yposition Zposition Zrotation Xrotation Yrotation
  JOINT SpineMid
  {
    OFFSET -0.000000 30.535928 0.000000
    CHANNELS 3 Zrotation Xrotation Yrotation
    JOINT SpineShoulder
    {
      OFFSET -0.045171 22.557054 -0.769044
      CHANNELS 3 Zrotation Xrotation Yrotation
      JOINT Neck
      {
        OFFSET -0.059248 7.439447 -0.584849
        CHANNELS 3 Zrotation Xrotation Yrotation
        JOINT Head
        {
          OFFSET -3.720759 13.574575 0.984995
          CHANNELS 3 Zrotation Xrotation Yrotation
          End Site
          {
            OFFSET 0 0 0
          }
        }
      }
      JOINT ShoulderLeft
      {
        OFFSET -12.979969 -3.551614 13.237940
        CHANNELS 3 Zrotation Xrotation Yrotation
        JOINT ElbowLeft
        {
          OFFSET -1.500431 -29.010407 0.709325
          CHANNELS 3 Zrotation Xrotation Yrotation
          JOINT WristLeft
          {
            OFFSET 1.508325 -22.136357 -7.779538
            CHANNELS 3 Zrotation Xrotation Yrotation
            JOINT HandLeft
            {
              OFFSET 1.108652 -4.717867 -2.651432
              CHANNELS 3 Zrotation Xrotation Yrotation
              JOINT HandTipLeft
              {
                OFFSET 0.876113 -6.383567 -1.106280
                CHANNELS 3 Zrotation Xrotation Yrotation
                End Site
                {
                  OFFSET 0 0 0
                }
              }
              JOINT ThumbLeft
              {
                OFFSET 2.177702 1.353411 -4.105532
                CHANNELS 3 Zrotation Xrotation Yrotation
                End Site
                {
                  OFFSET 0 0 0
                }
              }
            }
          }
        }
      }
      JOINT ShoulderRight
      {
        OFFSET 11.224371 -2.448721 -12.579717
        CHANNELS 3 Zrotation Xrotation Yrotation
        JOINT ElbowRight
        {
          OFFSET 4.661754 -22.447068 -6.107894
          CHANNELS 3 Zrotation Xrotation Yrotation
          JOINT WristRight
          {
            OFFSET -6.772763 -20.847377 -2.933577
            CHANNELS 3 Zrotation Xrotation Yrotation
            JOINT HandRight
            {
              OFFSET -2.571146 -3.941144 2.630533
              CHANNELS 3 Zrotation Xrotation Yrotation
              JOINT HandTipRight
              {
                OFFSET -3.025001 -6.368987 -0.688844
                CHANNELS 3 Zrotation Xrotation Yrotation
                End Site
                {
                  OFFSET 0 0 0
                }
              }
              JOINT ThumbRight
              {
                OFFSET 3.929110 -1.018772 -1.108575
                CHANNELS 3 Zrotation Xrotation Yrotation
                End Site
                {
                  OFFSET 0 0 0
                }
              }
            }
          }
        }
      }
    }
  }
  JOINT HipLeft
  {
    OFFSET -5.973532 -0.043519 1.570600
    CHANNELS 3 Zrotation Xrotation Yrotation
    JOINT KneeLeft
    {
      OFFSET 5.818963 -35.151299 7.031284
      CHANNELS 3 Zrotation Xrotation Yrotation
      JOINT AnkleLeft
      {
        OFFSET 12.380821 -33.681947 4.964887
        CHANNELS 3 Zrotation Xrotation Yrotation
        JOINT FootLeft
        {
          OFFSET -1.657989 -8.531327 -2.012374
          CHANNELS 3 Zrotation Xrotation Yrotation
          End Site
          {
            OFFSET 0 0 0
          }
        }
      }
    }
  }
  JOINT HipRight
  {
    OFFSET 4.950688 1.621812 -8.529431
    CHANNELS 3 Zrotation Xrotation Yrotation
    JOINT KneeRight
    {
      OFFSET 8.311044 -33.655895 -4.995158
      CHANNELS 3 Zrotation Xrotation Yrotation
      JOINT AnkleRight
      {
        OFFSET 10.625297 -36.170593 5.770249
        CHANNELS 3 Zrotation Xrotation Yrotation
        JOINT FootRight
        {
          OFFSET -8.127023 -4.106560 -10.503404
          CHANNELS 3 Zrotation Xrotation Yrotation
          End Site
          {
            OFFSET 0 0 0
          }
        }
      }
    }
  }
}
MOTION
Frames: 10
Frame Time: 0.033333
54.816726 78.053761 331.390260 -0.190616 -0.046690 37.360146 0.179841 -0.078560 -37.360100 -0.000000 0.000000 0.000000 0.624882 -1.268558 -0.385880 0.000000 0.000000 0.000000 0.421259 1.220303 -0.057329 1.254735 -1.005379 -0.492231 -2.065013 -5.676292 -0.509069 2.091136 -1.085170 -0.218577 0.000000 0.000000 0.000000 0.000000 0.000000 0.000000 1.667059 -1.288673 -0.702551 -4.737660 3.481418 0.562065 -6.923911 -13.966160 -0.044601 7.763303 13.832789 -2.302767 0.000000 0.000000 0.000000 0.000000 0.000000 0.000000 1.395432 0.756701 -37.042820 -2.022949 -2.454716 -1.004609 -3.426658 -0.999468 2.175507 0.000000 0.000000 0.000000 0.784445 1.895447 -36.785671 -0.570028 -1.989756 -0.836079 1.804673 0.871097 -2.734707 0.000000 0.000000 0.000000
54.787935 78.056045 331.334546 -0.257417 -0.307465 37.938181 0.392051 0.084224 -37.939160 -0.000000 0.000000 0.000000 1.139497 -0.140787 -0.119561 0.000000 0.000000 0.000000 0.258057 1.197893 -0.058368 1.139780 -1.107976 -0.403145 -1.447762 -5.197978 -0.694151 1.627600 -1.043728 -0.001874 0.000000 0.000000 0.000000 0.000000 0.000000 0.000000 1.620361 -1.155135 -0.664365 -5.150757 3.338176 0.597016 -6.097909 -13.176464 -0.227013 7.776682 11.744746 -1.520197 0.000000 0.000000 0.000000 0.000000 0.000000 0.000000 1.462884 0.941249 -37.663816 -1.689855 -2.278055 -0.884148 -3.306535 -0.068125 1.863497 0.000000 0.000000 0.000000 0.921254 1.966527 -37.392247 -0.491472 -1.835709 -0.786879 1.660612 0.676919 -2.200882 0.000000 0.000000 0.000000
54.760318 78.061632 331.294620 -0.306514 -0.523570 38.492123 -0.302214 -0.121340 -38.511416 -0.019556 -0.028228 -0.027349 2.208798 1.422645 0.043099 0.000000 0.000000 0.000000 0.626550 1.911668 -0.014229 1.035501 -1.188876 -0.346382 -0.780432 -4.635852 -0.910644 1.037061 0.507641 0.465103 0.000000 0.000000 0.000000 0.000000 0.000000 0.000000 2.131938 -0.325936 -0.654745 -5.730173 3.063725 0.782665 -2.918229 -11.176515 0.648209 5.948404 9.287618 -1.650648 0.000000 0.000000 0.000000 0.000000 0.000000 0.000000 1.524489 1.128301 -38.251917 -1.361564 -2.166069 -0.782576 -3.234050 1.263925 1.508444 0.000000 0.000000 0.000000 1.010899 1.965294 -37.987781 -0.408099 -1.647292 -0.720694 1.499436 0.506453 -1.732288 0.000000 0.000000 0.000000
54.732426 78.072895 331.211146 -0.325201 -0.970919 39.141521 -0.324217 -0.215227 -39.162670 0.012719 -0.042348 -0.027239 2.650620 2.815574 0.187370 0.000000 0.000000 0.000000 0.427045 1.385188 0.039478 0.991907 0.952641 -0.290913 -0.335410 -4.709817 -0.953054 0.633383 2.152264 0.763923 0.000000 0.000000 0.000000 0.000000 0.000000 0.000000 2.330471 0.457137 -0.700959 -6.299381 1.974929 1.079924 2.803210 -1.939109 -0.754889 -0.084045 0.364318 0.898271 0.000000 0.000000 0.000000 0.000000 0.000000 0.000000 1.740457 1.515201 -38.934437 -1.090064 -2.095882 -0.704287 -3.388368 1.859194 1.353697 0.000000 0.000000 0.000000 1.246194 2.171952 -38.678811 -0.362474 -1.444501 -0.654402 1.369126 0.222013 -1.117223 0.000000 0.000000 0.000000
54.700210 78.070962 331.109480 -0.328864 -1.566026 39.773593 -0.353701 -0.309428 -39.797149 0.035067 -0.068261 -0.028605 3.086239 4.237872 0.275243 0.000000 0.000000 0.000000 1.328459 -0.149429 0.162283 0.433943 -4.707897 -1.079862 -0.167129 -4.924282 -2.592796 1.407341 9.093540 2.310182 0.000000 0.000000 0.000000 0.000000 0.000000 0.000000 2.398157 1.003925 -0.795530 -6.444656 1.137246 1.451045 5.245145 1.938490 -1.421422 -2.642237 -3.838844 1.728188 0.000000 0.000000 0.000000 0.000000 0.000000 0.000000 2.053161 1.998991 -39.602961 -0.859854 -1.997188 -0.626283 -3.414239 1.930573 1.250135 0.000000 0.000000 0.000000 1.626660 2.499797 -39.355066 -0.401294 -1.274469 -0.598482 1.070237 -0.115351 0.137532 0.000000 0.000000 0.000000
54.668879 78.056578 331.016240 -0.316657 -2.158599 40.489880 -0.343890 -0.376646 -40.514766 0.059842 -0.081007 -0.028216 3.497989 5.305825 0.274311 0.000000 0.000000 0.000000 1.334929 1.114426 0.111540 -0.380440 -6.077468 -0.856644 -0.316900 0.642058 -1.136968 3.648621 4.691126 0.479912 0.000000 0.000000 0.000000 0.000000 0.000000 0.000000 2.320058 1.127006 -0.926752 -6.677691 0.667835 1.927343 7.259669 3.285821 -0.983473 -4.913199 -5.431777 1.333782 0.000000 0.000000 0.000000 0.000000 0.000000 0.000000 2.462294 2.463433 -40.335470 -0.770376 -1.910145 -0.571431 -3.528459 1.126042 1.308680 0.000000 0.000000 0.000000 2.013679 2.837824 -40.114344 -0.486911 -1.128215 -0.558186 1.108229 -0.172266 0.127469 0.000000 0.000000 0.000000
54.643259 78.020058 330.949513 -0.270148 -2.784217 41.083835 -0.339301 -0.471722 -41.108554 0.086129 -0.102786 -0.026265 3.598998 5.898735 0.164152 0.000000 0.000000 0.000000 0.246285 5.839565 -0.095744 -1.737790 -5.467790 0.370018 2.767557 9.847242 0.428044 2.081519 -7.268681 -1.258251 0.000000 0.000000 0.000000 0.000000 0.000000 0.000000 2.190337 1.148386 -1.093466 -6.642092 0.137193 2.479102 8.034111 3.994238 -0.681678 -5.976171 -4.861162 0.513179 0.000000 0.000000 0.000000 0.000000 0.000000 0.000000 2.761308 3.005306 -40.974239 -0.557746 -1.710137 -0.458266 -4.010298 0.149427 1.436120 0.000000 0.000000 0.000000 2.417481 3.290145 -40.734209 -0.517229 -1.054345 -0.537019 1.122524 -0.223090 0.115364 0.000000 0.000000 0.000000
54.615179 77.981188 330.901051 -0.177341 -3.440425 41.155915 -0.298565 -0.555942 -41.177216 0.111454 -0.106105 -0.021667 3.021008 5.803630 -0.013384 0.000000 0.000000 0.000000 -1.919142 13.725861 -0.223451 -4.654778 1.156776 3.145762 5.817025 22.697326 5.409366 -4.458884 -31.154727 -8.805505 0.000000 0.000000 0.000000 0.000000 0.000000 0.000000 2.133671 1.054053 -1.321957 -7.088759 -0.176803 3.116802 9.550636 6.472219 -1.590334 -8.401519 -7.331275 1.071978 0.000000 0.000000 0.000000 0.000000 0.000000 0.000000 2.865768 3.489715 -41.123552 0.317636 -1.072449 -0.110771 -5.075621 -0.632835 1.283525 0.000000 0.000000 0.000000 2.844145 3.892617 -40.812648 -0.526360 -1.141216 -0.558159 1.590441 -0.456457 -0.608409 0.000000 0.000000 0.000000
54.594735 77.945206 330.827118 0.000538 -4.037262 40.370408 -0.188045 -0.599885 -40.380871 0.198537 -0.113902 -0.009398 2.225740 4.906574 -0.346031 0.000000 0.000000 0.000000 -5.063339 23.846546 0.068503 -14.209130 25.043117 11.628531 7.251777 20.810544 13.814262 -16.483425 -50.003389 -25.155908 0.000000 0.000000 0.000000 0.000000 0.000000 0.000000 2.149840 0.772162 -1.639414 -7.744661 -0.387124 3.827344 10.537536 8.611346 -2.667947 -9.662278 -9.364274 1.682613 0.000000 0.000000 0.000000 0.000000 0.000000 0.000000 2.617146 3.075161 -40.440651 -0.000000 0.000000 0.000000 -4.970018 -1.024282 1.319274 0.000000 0.000000 0.000000 3.128058 4.647586 -40.004322 -0.461448 -1.289710 -0.593568 1.711143 -0.499042 -0.979939 0.000000 0.000000 0.000000
54.551055 77.940033 330.738023 0.166593 -4.561319 38.442915 -0.089780 -0.631952 -38.442389 0.212812 -0.146721 -0.001748 -0.000989 4.122397 -0.400310 0.000000 0.000000 0.000000 -9.115888 34.986635 1.249209 -31.419414 52.688172 30.725400 0.832726 1.486809 16.232121 -30.410201 11.076240 -34.356676 0.000000 0.000000 0.000000 0.000000 0.000000 0.000000 2.067305 0.607181 -1.853966 -8.315675 -0.626422 4.420091 12.200851 12.024169 -4.637692 -10.498990 -13.393327 2.979422 0.000000 0.000000 0.000000 0.000000 0.000000 0.000000 1.906933 3.913561 -38.676805 0.773834 0.314150 0.204558 -4.737496 -1.768752 1.382569 0.000000 0.000000 0.000000 3.280608 5.477340 -38.032849 -0.375245 -1.497957 -0.643930 1.845254 -0.498891 -1.523745 0.000000 0.000000 0.000000
